<?xml version="1.0" encoding="iso-8859-1"?>
<!-- Generator: Adobe Illustrator 19.0.0, SVG Export Plug-In . SVG Version: 6.00 Build 0)  -->
<svg version="1.1" id="Layer_1" xmlns="http://www.w3.org/2000/svg" xmlns:xlink="http://www.w3.org/1999/xlink" x="0px" y="0px"
	 viewBox="0 0 512 512" style="enable-background:new 0 0 512 512;" xml:space="preserve">
<g>
	<g>
		<path d="M437.073,118.634V43.707H0v349.659h74.927v74.927H512V118.634H437.073z M37.463,81.171H399.61v91.632l-36.79,33.544
			c-29.571-48.792-83.181-81.468-144.283-81.468s-114.712,32.676-144.283,81.468l-36.79-33.544V81.171z M218.537,237.268
			c28.802,0,52.601,21.786,55.813,49.743l-55.813,50.888l-55.813-50.888C165.935,259.055,189.733,237.268,218.537,237.268z
			 M131.616,258.647l-28.988-26.43c22.03-41.523,65.717-69.875,115.908-69.875c50.191,0,93.878,28.352,115.908,69.877l-28.988,26.43
			c-13.848-34.449-47.579-58.844-86.92-58.844C179.195,199.805,145.464,224.2,131.616,258.647z M399.61,223.502v132.401H254.395
			L399.61,223.502z M37.463,355.902V223.502l145.214,132.401H37.463z M474.537,430.829H112.39v-37.463h324.683V156.098h37.463
			V430.829z"/>
	</g>
</g>
<g>
</g>
<g>
</g>
<g>
</g>
<g>
</g>
<g>
</g>
<g>
</g>
<g>
</g>
<g>
</g>
<g>
</g>
<g>
</g>
<g>
</g>
<g>
</g>
<g>
</g>
<g>
</g>
<g>
</g>
</svg>
